<svg id="cancel-24px" xmlns="http://www.w3.org/2000/svg" width="18" height="18" viewBox="0 0 18 18">
  <path id="Path_2570" data-name="Path 2570" d="M0,0H18V18H0Z" fill="none" opacity="0.87"/>
  <path id="Path_2571" data-name="Path 2571" d="M9.5,2A7.5,7.5,0,1,0,17,9.5,7.493,7.493,0,0,0,9.5,2Zm3.225,10.725a.747.747,0,0,1-1.057,0L9.5,10.557,7.332,12.725a.748.748,0,0,1-1.057-1.057L8.442,9.5,6.275,7.332A.748.748,0,0,1,7.332,6.275L9.5,8.442l2.168-2.167a.748.748,0,0,1,1.057,1.057L10.557,9.5l2.167,2.168a.761.761,0,0,1,0,1.057Z" transform="translate(-0.5 -0.5)" fill="rgba(22,65,181,0.54)"/>
</svg>
