<svg width="15" height="15" viewBox="0 0 15 15" fill="none" xmlns="http://www.w3.org/2000/svg">
<path d="M7.264 6.008C7.09866 6.008 6.96 5.952 6.848 5.84C6.736 5.728 6.68 5.58933 6.68 5.424C6.68 5.25867 6.736 5.12 6.848 5.008C6.96 4.896 7.09866 4.84 7.264 4.84C7.424 4.84 7.56 4.896 7.672 5.008C7.784 5.12 7.84 5.25867 7.84 5.424C7.84 5.58933 7.784 5.728 7.672 5.84C7.56 5.952 7.424 6.008 7.264 6.008ZM7.712 6.592V11H6.8V6.592H7.712Z" fill="#374365" fill-opacity="0.54"/>
<rect x="0.5" y="0.5" width="14" height="14" rx="7" stroke="#374365" stroke-opacity="0.54"/>
</svg>
