<svg width="18" height="13" viewBox="0 0 18 13" fill="none" xmlns="http://www.w3.org/2000/svg">
<path d="M6 10.2L2.5 6.69999C2.40841 6.60653 2.29921 6.53216 2.1787 6.48117C2.0582 6.43018 1.92878 6.40359 1.79793 6.40293C1.66708 6.40227 1.5374 6.42755 1.41638 6.47732C1.29537 6.52709 1.18542 6.60036 1.09289 6.69288C1.00037 6.78541 0.927103 6.89536 0.877334 7.01637C0.827566 7.13739 0.802281 7.26707 0.802942 7.39792C0.803602 7.52877 0.830196 7.65819 0.881185 7.77869C0.932173 7.8992 1.00655 8.0084 1.1 8.09999L5.29 12.29C5.47736 12.4762 5.73081 12.5808 5.995 12.5808C6.25919 12.5808 6.51264 12.4762 6.7 12.29L17.3 1.69999C17.4826 1.5137 17.5842 1.26289 17.5829 1.00206C17.5816 0.74123 17.4774 0.49146 17.293 0.307024C17.1085 0.122588 16.8588 0.0183893 16.5979 0.017072C16.3371 0.0157546 16.0863 0.117425 15.9 0.299989L6 10.2Z" fill="white"/>
</svg>
