<svg xmlns="http://www.w3.org/2000/svg" width="56" height="56" viewBox="0 0 56 56">
  <g id="ic_tap_sequence" transform="translate(-1094 -296)">
    <rect id="Rectangle_1150" data-name="Rectangle 1150" width="56" height="56" transform="translate(1094 296)" fill="#2378ff" opacity="0"/>
    <g id="noun_NFC_3082792" transform="translate(997.391 278.97)">
      <g id="Group_775" data-name="Group 775" transform="translate(105.61 21.03)">
        <path id="Path_2560" data-name="Path 2560" d="M126.511,39.591h15.122a1.889,1.889,0,0,1,1.884,1.884V67.146a1.889,1.889,0,0,1-1.884,1.884H126.511a1.889,1.889,0,0,1-1.883-1.884V41.475A1.889,1.889,0,0,1,126.511,39.591Zm-2.588-6.724a6.48,6.48,0,0,1,6.13,4.382H126.52a3.336,3.336,0,1,0-4.234,5v3.36a6.477,6.477,0,0,1,1.638-12.744Zm0-11.837a18.316,18.316,0,0,1,18.2,16.247,4.213,4.213,0,0,0-.486-.028h-2.682a15.173,15.173,0,1,0-16.666,17.179v3.155a18.313,18.313,0,0,1,1.638-36.553Zm0,5.857A12.46,12.46,0,0,1,136.2,37.249H133a9.317,9.317,0,1,0-10.717,11.267v3.177a12.457,12.457,0,0,1,1.638-24.805Zm10.15,36.133a2.024,2.024,0,1,1-2.024,2.024A2.023,2.023,0,0,1,134.073,63.02Z" transform="translate(-105.61 -21.03)" fill="#2378ff" fill-rule="evenodd"/>
      </g>
    </g>
  </g>
</svg>
