<svg xmlns="http://www.w3.org/2000/svg" width="56" height="56" viewBox="0 0 56 56">
  <g id="Group_779" data-name="Group 779" transform="translate(-1094 -296)">
    <rect id="Rectangle_1150" data-name="Rectangle 1150" width="56" height="56" transform="translate(1094 296)" fill="#2378ff" opacity="0"/>
    <g id="noun_place_3110930" transform="translate(1098 298)">
      <g id="Group_780" data-name="Group 780" transform="translate(2 2)">
        <path id="Path_2565" data-name="Path 2565" d="M17.714,17.714h4.167a72.17,72.17,0,0,0,4.524,7.392,4.714,4.714,0,0,0,7.759,0,72.166,72.166,0,0,0,4.525-7.393h1.025A1.571,1.571,0,0,1,41.259,19l2.587,13.8L17.714,25.961Zm0,11.494V46h6.492l8.573-12.852Zm-3.143,8.935H2.774l-.761,6.091A1.571,1.571,0,0,0,3.571,46h11ZM36,33.989,27.984,46H44.429a1.571,1.571,0,0,0,1.545-1.862L44.486,36.21ZM14.571,35V17.714H6.714a1.571,1.571,0,0,0-1.559,1.376L3.166,35ZM38.143,9.857c0,3.77-5.469,11.878-6.564,13.465a1.571,1.571,0,0,1-2.586,0c-1.1-1.587-6.564-9.694-6.564-13.465a7.857,7.857,0,0,1,15.714,0Zm-4.714,0A3.143,3.143,0,1,0,30.286,13a3.143,3.143,0,0,0,3.143-3.143Z" transform="translate(-2 -2)" fill="#2378ff"/>
      </g>
    </g>
  </g>
</svg>
