<svg id="all_inbox-24px_1_" data-name="all_inbox-24px (1)" xmlns="http://www.w3.org/2000/svg" width="24" height="24" viewBox="0 0 24 24">
  <path id="Path_2267" data-name="Path 2267" d="M0,0H24V24H0Z" fill="none"/>
  <path id="Path_2268" data-name="Path 2268" d="M19,3H5A2.006,2.006,0,0,0,3,5v7a2.006,2.006,0,0,0,2,2H19a2.006,2.006,0,0,0,2-2V5A2.006,2.006,0,0,0,19,3Zm0,6H15.86a1.022,1.022,0,0,0-.97.78,2.991,2.991,0,0,1-5.78,0A1.022,1.022,0,0,0,8.14,9H5V6A1,1,0,0,1,6,5H18a1,1,0,0,1,1,1Zm-3.13,7H20a1,1,0,0,1,1,1v2a2.006,2.006,0,0,1-2,2H5a2.006,2.006,0,0,1-2-2V17a1,1,0,0,1,1-1H8.13a1.041,1.041,0,0,1,.98.8,3,3,0,0,0,5.78,0,1.041,1.041,0,0,1,.98-.8Z" fill="#2378ff"/>
</svg>
