<svg id="calculate-24px" xmlns="http://www.w3.org/2000/svg" width="24" height="24" viewBox="0 0 24 24">
  <g id="Group_669" data-name="Group 669">
    <rect id="Rectangle_1032" data-name="Rectangle 1032" width="24" height="24" fill="none"/>
    <rect id="Rectangle_1033" data-name="Rectangle 1033" width="24" height="24" fill="none"/>
  </g>
  <g id="_001-tag" data-name="001-tag" transform="translate(3 -19.224)">
    <g id="Group_721" data-name="Group 721" transform="translate(0 23.224)">
      <g id="Group_720" data-name="Group 720" transform="translate(0 0)">
        <path id="Path_2345" data-name="Path 2345" d="M14.04,23.224H8.514a1.324,1.324,0,0,0-.933.385L.387,30.764a1.309,1.309,0,0,0,0,1.857l5.527,5.5a1.325,1.325,0,0,0,1.866,0l7.194-7.155a1.313,1.313,0,0,0,.387-.93v-5.5A1.316,1.316,0,0,0,14.04,23.224Zm-2.31,4.6a.985.985,0,1,1,.99-.985A.988.988,0,0,1,11.73,27.82Z" transform="translate(0 -23.224)" fill="#2378ff"/>
      </g>
    </g>
    <g id="Group_723" data-name="Group 723" transform="translate(9.033 24.537)">
      <g id="Group_722" data-name="Group 722" transform="translate(0 0)">
        <path id="Path_2346" data-name="Path 2346" d="M226.635,55.224v6.112a1.137,1.137,0,0,1-.337.808l-7.31,7.272.112.112a1.325,1.325,0,0,0,1.866,0l6.6-6.565a1.308,1.308,0,0,0,.387-.928v-5.5A1.316,1.316,0,0,0,226.635,55.224Z" transform="translate(-218.988 -55.224)" fill="#2378ff"/>
      </g>
    </g>
  </g>
</svg>
