<svg id="calculate-24px" xmlns="http://www.w3.org/2000/svg" width="24" height="24" viewBox="0 0 24 24">
  <g id="Group_669" data-name="Group 669">
    <rect id="Rectangle_1032" data-name="Rectangle 1032" width="24" height="24" fill="none"/>
    <rect id="Rectangle_1033" data-name="Rectangle 1033" width="24" height="24" fill="none"/>
  </g>
  <g id="noun_Professionals_648900" transform="translate(0.56 -11.937)">
    <path id="Path_2344" data-name="Path 2344" d="M22.44,29.024v2.02H17.029L18.065,25.4a23.2,23.2,0,0,1,3.862,2.528,1.423,1.423,0,0,1,.513,1.1ZM17.557,17.081a2.1,2.1,0,0,0-.821-.764,2.768,2.768,0,0,0-1.678-.366,2.442,2.442,0,0,0-.666.129h0a2.959,2.959,0,0,0-.739.38,3.955,3.955,0,0,0-.761.628,3.063,3.063,0,0,0-.821,1.44,3.13,3.13,0,0,0,0,1.407h0a2.808,2.808,0,0,0,.118.444c-.273-.027-.593.133-.291,1.2.222.781.426,1,.582,1.012a3.274,3.274,0,0,0,.408,1.11V24.7l2.151,1.554-.808,1.028.539.9-.417,2.87h1.836l-.426-2.87.544-.872L15.5,26.274l2.151-1.554V23.7a3.207,3.207,0,0,0,.408-1.11c.155-.013.362-.222.582-1.012.3-1.07-.018-1.227-.291-1.2a2.815,2.815,0,0,0,.118-.444c.462-2.757-.9-2.854-.9-2.854ZM8.61,27.925a1.423,1.423,0,0,0-.513,1.11v2.009h5.411L12.474,25.4A23.2,23.2,0,0,0,8.61,27.925Zm-1.525,1.1a2.422,2.422,0,0,1,.888-1.878c.526-.433,1.061-.823,1.571-1.17a.122.122,0,0,0-.013-.209l-.193-.1a.12.12,0,0,1-.069-.109v-1.3a2.963,2.963,0,0,0,.377-1.019c.144-.011.333-.222.537-.937.28-.988-.018-1.134-.269-1.11a2.6,2.6,0,0,0,.109-.406c.426-2.557-.832-2.646-.832-2.646a1.935,1.935,0,0,0-.759-.706,2.557,2.557,0,0,0-1.554-.328,2.262,2.262,0,0,0-.621.118h0a2.732,2.732,0,0,0-.681.351,3.651,3.651,0,0,0-.7.582,2.83,2.83,0,0,0-.759,1.332,2.885,2.885,0,0,0,0,1.3h0a2.6,2.6,0,0,0,.109.406c-.251-.024-.548.122-.269,1.11.2.721.4.923.537.937a3.025,3.025,0,0,0,.377,1.032v1.287a.12.12,0,0,1-.067.109A21.474,21.474,0,0,0,.919,28.158,1.332,1.332,0,0,0,.44,29.179v1.864H7.085Z" transform="translate(0 0)" fill="#2378ff"/>
  </g>
</svg>
